{"title":"Act of Valor 2012 DVDrip English Klam","uid":10733901,"size":1944859244,"categoryP":"video","categoryS":"movies","magnet":"?xt=urn:btih:1848c8180bbf356eaeac9679d9f5f91fe27b6773&amp;dn=Act+of+Valor+2012+DVDrip+English+Klam&amp;tr=udp%3A%2F%2Ftracker.openbittorrent.com%3A80&amp;tr=udp%3A%2F%2Fopen.demonii.com%3A1337&amp;tr=udp%3A%2F%2Ftracker.coppersurfer.tk%3A6969&amp;tr=udp%3A%2F%2Fexodus.desync.com%3A6969","seeders":2,"leechers":0,"uploader":"Klambake","files":-1,"time":1407666417,"description":"With: Roselyn Sanchez, Emilio Rivera and Nestor Serrano\n\nWanneer de reddingsactie van een ontvoerde CIA-agent leidt tot de ontdekking van een moorddadig terroristisch plan tegen de Verenigde Staten, wordt een team van Navy SEALs op een wereldwijde klopjacht gestuurd. Terwijl de mannen van het Bandito Platoon strijden om de aanval te stoppen, moeten ze balanceren tussen hun plicht jegens hun vaderland, hun teamleden en hun families.\n\nAn elite team of Navy SEALs embark on a covert mission to recover a kidnapped CIA agent.\n &lt;a href=&quot;\nhttp://www.imdb.com/title/tt1591479&quot; rel=&quot;nofollow&quot; target=&quot;_NEW&quot;&gt;\nhttp://www.imdb.com/title/tt1591479&lt;/a&gt;\t\n\n--------------------- Dutch Friends 4ever ---------------------\n---------------------------------------------------------------\n- Bezoek ook eens mijn vrienden op: &lt;a href=&quot; http://www.Film-Test.nl&quot; rel=&quot;nofollow&quot; target=&quot;_NEW&quot;&gt; http://www.Film-Test.nl&lt;/a&gt; --\n----- voor mijn Nederlandse Sync. ondertitels ---- en meer ----\n------- http://www.Film-Test.nl ---- Over Films en meer -------\n---------------------------------------------------------------\n &lt;a href=&quot;\nhttp://i.imgur.com/lSMalPe.jpg&quot; rel=&quot;nofollow&quot; target=&quot;_NEW&quot;&gt;\nhttp://i.imgur.com/lSMalPe.jpg&lt;/a&gt; &lt;a href=&quot;\nhttp://i.imgur.com/3oYStLD.jpg&quot; rel=&quot;nofollow&quot; target=&quot;_NEW&quot;&gt;\nhttp://i.imgur.com/3oYStLD.jpg&lt;/a&gt; &lt;a href=&quot;\nhttp://i.imgur.com/2DZWuzE.jpg&quot; rel=&quot;nofollow&quot; target=&quot;_NEW&quot;&gt;\nhttp://i.imgur.com/2DZWuzE.jpg&lt;/a&gt;\n\nGeneral:\n\nComplete name                            : Act of ValorAct of Valor.avi\nFormat                                   : AVI\nFormat/Info                              : Audio Video Interleave\nFile size                                : 1.81 GiB\nDuration                                 : 1h 44mn\nOverall bit rate                         : 2 470 Kbps\n\nVideo:\n\nFormat                                   : MPEG-4 Visual\nFormat profile                           : Simple@L3\nFormat settings, BVOP                    : No\nFormat settings, QPel                    : No\nFormat settings, GMC                     : No warppoints\nFormat settings, Matrix                  : Default (H.263)\nCodec ID                                 : XVID\nCodec ID/Hint                            : XviD\nDuration                                 : 1h 44mn\nSource duration                          : 1h 44mn\nBit rate                                 : 2 011 Kbps\nWidth                                    : 720 pixels\nHeight                                   : 304 pixels\nDisplay aspect ratio                     : 2.35:1\nFrame rate                               : 25.000 fps\nColor space                              : YUV\nChroma subsampling                       : 4:2:0\nBit depth                                : 8 bits\nScan type                                : Progressive\nCompression mode                         : Lossy\nBits/(Pixel*Frame)                       : 0.368\nStream size                              : 1.47 GiB (81%)\nWriting library                          : XviD 1.1.2 (UTC 2006-11-01)\n\nAudio:\n\nFormat                                   : AC-3\nFormat/Info                              : Audio Coding 3\nMode extension                           : CM (complete main)\nFormat settings, Endianness              : Big\nCodec ID                                 : 2000\nDuration                                 : 1h 44mn\nBit rate mode                            : Constant\nBit rate                                 : 448 Kbps\nChannel(s)                               : 6 channels\nChannel positions                        : Front: L C R, Side: L R, LFE\nSampling rate                            : 48.0 KHz\nBit depth                                : 16 bits\nCompression mode                         : Lossy\nStream size                              : 336 MiB (18%)\nAlignment                                : Aligned on interleaves\nInterleave, duration                     : 32 ms (0.80 video frame)\nInterleave, preload duration             : 512 ms\n\n\n","torrent":{"xt":"urn:btih:1848c8180bbf356eaeac9679d9f5f91fe27b6773","amp;dn":"Act+of+Valor+2012+DVDrip+English+Klam","amp;tr":["udp%3A%2F%2Ftracker.openbittorrent.com%3A80","udp%3A%2F%2Fopen.demonii.com%3A1337","udp%3A%2F%2Ftracker.coppersurfer.tk%3A6969","udp%3A%2F%2Fexodus.desync.com%3A6969"],"infoHash":"1848c8180bbf356eaeac9679d9f5f91fe27b6773","infoHashBuffer":{"type":"Buffer","data":[24,72,200,24,11,191,53,110,174,172,150,121,217,245,249,31,226,123,103,115]},"announce":[],"urlList":[]}}